<svg width="20" height="20" viewBox="0 0 20 20" fill="none" xmlns="http://www.w3.org/2000/svg">
<path d="M10 1.66667C10.6916 1.66661 11.3571 1.93117 11.8599 2.40609C12.3627 2.88101 12.6648 3.53031 12.7042 4.22083L12.7083 4.375L12.7092 11.0017L12.7758 11.0592C13.5524 11.7515 14.0412 12.7099 14.1458 13.745L14.1617 13.955L14.1667 14.1667C14.1668 14.8532 13.9973 15.5291 13.6732 16.1343C13.3491 16.7395 12.8805 17.2553 12.3091 17.6357C11.7377 18.0162 11.081 18.2495 10.3977 18.315C9.71429 18.3806 9.02531 18.2762 8.39198 18.0113C7.75866 17.7463 7.2006 17.329 6.76744 16.7964C6.33428 16.2638 6.03943 15.6324 5.9091 14.9584C5.77878 14.2844 5.81701 13.5886 6.02042 12.9329C6.22382 12.2772 6.58608 11.6819 7.075 11.2L7.225 11.0583L7.29083 11.0017L7.29167 4.375C7.29153 3.70942 7.53648 3.0671 7.97977 2.57062C8.42307 2.07415 9.03365 1.75829 9.695 1.68333L9.84667 1.67083L10 1.66667ZM10 2.91667C9.63387 2.9167 9.28116 3.05444 9.01191 3.30254C8.74266 3.55064 8.57658 3.89093 8.54667 4.25583L8.54167 4.375V11.62L8.28417 11.8075C7.79219 12.1654 7.42443 12.6681 7.23236 13.2453C7.04029 13.8226 7.03353 14.4454 7.21302 15.0267C7.39251 15.608 7.74927 16.1186 8.23336 16.4871C8.71745 16.8555 9.30464 17.0634 9.91273 17.0815C10.5208 17.0997 11.1194 16.9273 11.6246 16.5884C12.1298 16.2495 12.5164 15.7611 12.7303 15.1916C12.9442 14.6221 12.9746 13.9999 12.8174 13.4123C12.6601 12.8246 12.3231 12.3008 11.8533 11.9142L11.7158 11.8083L11.46 11.6208L11.4583 4.375C11.4583 3.98823 11.3047 3.61729 11.0312 3.3438C10.7577 3.07031 10.3868 2.91667 10 2.91667V2.91667ZM10 6.66667C10.1658 6.66667 10.3247 6.73252 10.4419 6.84973C10.5592 6.96694 10.625 7.12591 10.625 7.29167V12.1792C11.1 12.3285 11.5059 12.643 11.7692 13.0657C12.0324 13.4884 12.1356 13.9914 12.06 14.4836C11.9845 14.9758 11.7352 15.4247 11.3574 15.749C10.9795 16.0733 10.498 16.2516 10 16.2516C9.50203 16.2516 9.02052 16.0733 8.64264 15.749C8.26476 15.4247 8.01549 14.9758 7.93995 14.4836C7.86441 13.9914 7.9676 13.4884 8.23084 13.0657C8.49407 12.643 8.89995 12.3285 9.375 12.1792V7.29167C9.375 7.12591 9.44085 6.96694 9.55806 6.84973C9.67527 6.73252 9.83424 6.66667 10 6.66667V6.66667Z" fill="white"/>
</svg>
