<svg width="14" height="17" viewBox="0 0 14 17" fill="none" xmlns="http://www.w3.org/2000/svg">
<path d="M7.01111 2.21264L3.43611 6.08553C2.72913 6.8515 2.24769 7.82738 2.05266 8.88977C1.85763 9.95215 1.95778 11.0533 2.34044 12.0541C2.72309 13.0548 3.37108 13.9101 4.20245 14.5119C5.03382 15.1137 6.01124 15.4349 7.01111 15.4349C8.01098 15.4349 8.9884 15.1137 9.81977 14.5119C10.6511 13.9101 11.2991 13.0548 11.6818 12.0541C12.0644 11.0533 12.1646 9.95215 11.9696 8.88977C11.7745 7.82738 11.2931 6.8515 10.5861 6.08553L7.01111 2.21264ZM7.01111 0L11.6073 4.97922C12.5164 5.96401 13.1354 7.21871 13.3862 8.58465C13.637 9.95059 13.5083 11.3664 13.0163 12.6531C12.5243 13.9398 11.6912 15.0395 10.6223 15.8133C9.55339 16.587 8.29668 17 7.01111 17C5.72553 17 4.46883 16.587 3.39991 15.8133C2.33099 15.0395 1.49787 13.9398 1.0059 12.6531C0.51393 11.3664 0.385204 9.95059 0.636001 8.58465C0.886799 7.21871 1.50586 5.96401 2.41489 4.97922L7.01111 0V0Z" fill="white"/>
</svg>
