<svg width="20" height="20" viewBox="0 0 20 20" fill="none" xmlns="http://www.w3.org/2000/svg">
<path d="M10.1201 15.1201C9.92537 15.1205 9.73668 15.0527 9.58675 14.9284L4.58675 10.7618C4.41657 10.6203 4.30955 10.417 4.28923 10.1967C4.26892 9.97634 4.33697 9.75694 4.47842 9.58676C4.61986 9.41658 4.82312 9.30956 5.04348 9.28924C5.26383 9.26892 5.48324 9.33697 5.65342 9.47842L10.1201 13.2118L14.5868 9.61176C14.672 9.54254 14.7701 9.49084 14.8754 9.45965C14.9806 9.42846 15.091 9.41838 15.2002 9.42999C15.3094 9.44161 15.4152 9.47469 15.5116 9.52734C15.608 9.57998 15.693 9.65115 15.7618 9.73676C15.8381 9.82244 15.8959 9.92296 15.9315 10.032C15.9672 10.1411 15.9799 10.2563 15.969 10.3706C15.958 10.4848 15.9236 10.5955 15.8679 10.6958C15.8121 10.7961 15.7363 10.8838 15.6451 10.9534L10.6451 14.9784C10.4908 15.083 10.306 15.1329 10.1201 15.1201V15.1201Z" fill="white"/>
<path d="M10.1201 10.8344C9.92537 10.8348 9.73668 10.7669 9.58675 10.6427L4.58675 6.47604C4.41657 6.33459 4.30955 6.13134 4.28923 5.91098C4.26892 5.69062 4.33697 5.47122 4.47842 5.30104C4.61986 5.13086 4.82312 5.02384 5.04348 5.00353C5.26383 4.98321 5.48324 5.05126 5.65342 5.19271L10.1201 8.92604L14.5868 5.32604C14.672 5.25682 14.7701 5.20513 14.8754 5.17394C14.9806 5.14274 15.091 5.13266 15.2002 5.14428C15.3094 5.1559 15.4152 5.18898 15.5116 5.24162C15.608 5.29427 15.693 5.36544 15.7618 5.45104C15.8381 5.53673 15.8959 5.63725 15.9315 5.74631C15.9672 5.85537 15.9799 5.97062 15.969 6.08484C15.958 6.19906 15.9236 6.30979 15.8679 6.41009C15.8121 6.51038 15.7363 6.59809 15.6451 6.66771L10.6451 10.6927C10.4908 10.7973 10.306 10.8472 10.1201 10.8344V10.8344Z" fill="white"/>
</svg>
