<svg width="16" height="14" viewBox="0 0 16 14" fill="none" xmlns="http://www.w3.org/2000/svg">
<path d="M12.8633 7.04439C13.0255 7.11607 13.0211 7.34779 12.8562 7.41322L3.38233 11.1734C3.20922 11.2421 3.04442 11.0577 3.1321 10.8933L4.72154 7.91426C4.99535 7.3898 5.00725 6.76728 4.7537 6.23275L3.27929 3.19507C3.19797 3.02751 3.36969 2.84952 3.54005 2.9248L12.8633 7.04439ZM14.6162 8.18725C15.4483 7.86313 15.4707 6.69389 14.6516 6.3382L2.06688 0.873175C1.83545 0.772678 1.56628 0.821466 1.38485 0.996793C1.20016 1.17527 1.14373 1.4487 1.24266 1.68572L3.14256 6.23731C3.35857 6.75481 3.3474 7.33924 3.11176 7.84811L1.03926 12.3237C0.931334 12.5568 0.977275 12.8322 1.15501 13.0176C1.3296 13.1997 1.59671 13.2588 1.8318 13.1672L14.6162 8.18725Z" fill="white"/>
</svg>
