<svg width="66" height="70" viewBox="0 0 66 70" fill="none" xmlns="http://www.w3.org/2000/svg">
<path fill-rule="evenodd" clip-rule="evenodd" d="M20.6246 2.39156C17.3056 15.5995 12.2795 54.6198 64.1519 53.6681C65.5564 53.6423 66.4078 55.1827 65.5932 56.3213C62.0473 61.2732 52.4014 70.8097 31.4546 69.0545C31.4546 69.0545 1.35881 65.3572 0.0601625 31.667C0.0601625 31.667 -1.14989 12.0354 17.9084 0.404348C19.2978 -0.442097 21.02 0.821126 20.6246 2.39156Z" fill="#C6DAE5"/>
<path fill-rule="evenodd" clip-rule="evenodd" d="M12.223 42.9952C8.58416 43.427 5.28244 40.8425 4.85028 37.2269C4.41596 33.6091 7.01325 30.3264 10.6521 29.8968C14.2909 29.4649 17.5904 32.0472 18.0247 35.665C18.4591 39.2828 15.8596 42.5634 12.223 42.9952Z" fill="#9BB4C6"/>
<path fill-rule="evenodd" clip-rule="evenodd" d="M26.9367 54.9661C27.2651 57.701 25.301 60.1801 22.5502 60.5067C19.7995 60.8332 17.306 58.8804 16.9775 56.1456C16.6491 53.4107 18.6132 50.9315 21.364 50.605C24.1147 50.2784 26.6082 52.2313 26.9367 54.9661Z" fill="#9BB4C6"/>
<path fill-rule="evenodd" clip-rule="evenodd" d="M36.8399 54.6258C37.1122 56.9074 35.4743 58.9762 33.1817 59.2469C30.8869 59.5198 28.8061 57.8913 28.5338 55.6098C28.2594 53.3304 29.8973 51.2594 32.192 50.9887C34.4847 50.7159 36.5655 52.3443 36.8399 54.6258Z" fill="#9BB4C6"/>
<path fill-rule="evenodd" clip-rule="evenodd" d="M53.2962 58.908C53.5015 60.6267 52.2676 62.1864 50.539 62.3926C48.8103 62.5967 47.2416 61.3679 47.0342 59.6492C46.8289 57.9305 48.0627 56.3709 49.7913 56.1668C51.5222 55.9605 53.0909 57.1894 53.2962 58.908Z" fill="#9BB4C6"/>
<path fill-rule="evenodd" clip-rule="evenodd" d="M16.6199 22.0033C16.8252 23.7219 15.5914 25.2816 13.8627 25.4879C12.1341 25.6919 10.5653 24.4631 10.3579 22.7444C10.1526 21.0258 11.3864 19.4661 13.1151 19.262C14.8459 19.0557 16.4146 20.2846 16.6199 22.0033Z" fill="#9BB4C6"/>
<path fill-rule="evenodd" clip-rule="evenodd" d="M42.3986 16.8383C44.0732 16.8383 44.7819 22.1275 45.6203 22.9116C46.4587 23.6958 51.8478 22.4067 52.4269 24.0825C53.006 25.756 48.1398 27.9881 47.6104 29.0043C47.081 30.0205 50.0738 34.7962 48.5958 35.8016C47.1178 36.8071 43.5503 32.7703 42.3986 32.7703C41.2468 32.7703 37.6167 36.9145 36.2014 35.8016C34.786 34.6888 37.7139 30.0205 37.1845 29.0043C36.6573 27.9881 31.7825 25.7367 32.3702 24.0825C32.958 22.4261 38.3384 23.6958 39.1768 22.9116C40.0152 22.1275 40.7239 16.8383 42.3986 16.8383Z" fill="#F9C900"/>
<path fill-rule="evenodd" clip-rule="evenodd" d="M52.4747 1.67126C53.581 1.67126 54.0477 5.16231 54.6009 5.68006C55.1541 6.19781 58.7086 5.34492 59.0911 6.45132C59.4735 7.55556 56.2647 9.02932 55.9147 9.6996C55.5646 10.3699 57.5396 13.5215 56.5651 14.1853C55.5884 14.8492 53.2353 12.1852 52.4747 12.1852C51.7141 12.1852 49.3199 14.9201 48.3842 14.1853C47.4508 13.4506 49.3847 10.3699 49.0347 9.6996C48.6846 9.02932 45.4693 7.54267 45.8583 6.45132C46.245 5.35996 49.7953 6.19781 50.3484 5.68006C50.9016 5.16231 51.3705 1.67126 52.4747 1.67126Z" fill="#F9C900"/>
</svg>
