<svg width="90" height="76" viewBox="0 0 90 76" fill="none" xmlns="http://www.w3.org/2000/svg">
<path fill-rule="evenodd" clip-rule="evenodd" d="M21.5278 2.39257C18.0972 16.2232 12.9022 57.083 66.5187 56.0864C67.9705 56.0594 68.8504 57.6724 68.0084 58.8647C64.3433 64.05 54.3731 74.0361 32.7219 72.1981C32.7219 72.1981 1.61423 68.3265 0.271922 33.0481C0.271922 33.0481 -0.978817 12.4911 18.7203 0.31168C20.1565 -0.574668 21.9365 0.748105 21.5278 2.39257Z" fill="#C6DAE5"/>
<path fill-rule="evenodd" clip-rule="evenodd" d="M18.8405 37.2344C19.2894 41.0227 16.6025 44.4579 12.8436 44.9101C9.08246 45.3622 5.66972 42.6559 5.22303 38.8698C4.77411 35.0815 7.45873 31.6441 11.2199 31.1942C14.981 30.742 18.3915 33.446 18.8405 37.2344Z" fill="#9BB4C6"/>
<path fill-rule="evenodd" clip-rule="evenodd" d="M28.0522 57.4456C28.3917 60.3094 26.3614 62.9054 23.5182 63.2474C20.675 63.5893 18.0976 61.5444 17.7581 58.6806C17.4187 55.8169 19.4489 53.2208 22.2921 52.8789C25.1353 52.5369 27.7127 54.5818 28.0522 57.4456Z" fill="#9BB4C6"/>
<path fill-rule="evenodd" clip-rule="evenodd" d="M38.2884 57.0892C38.5698 59.4783 36.8768 61.6447 34.5071 61.9282C32.1352 62.2139 29.9844 60.5087 29.703 58.1196C29.4193 55.7327 31.1123 53.5641 33.4842 53.2806C35.8539 52.9949 38.0047 54.7001 38.2884 57.0892Z" fill="#9BB4C6"/>
<path fill-rule="evenodd" clip-rule="evenodd" d="M55.298 61.5735C55.5102 63.3732 54.2349 65.0064 52.4481 65.2224C50.6613 65.4361 49.0398 64.1493 48.8254 62.3496C48.6133 60.5499 49.8886 58.9167 51.6753 58.703C53.4643 58.487 55.0858 59.7738 55.298 61.5735Z" fill="#9BB4C6"/>
<path fill-rule="evenodd" clip-rule="evenodd" d="M17.3885 22.9288C17.6007 24.7285 16.3254 26.3617 14.5386 26.5777C12.7519 26.7914 11.1304 25.5046 10.9159 23.705C10.7038 21.9053 11.9791 20.272 13.7659 20.0583C15.5549 19.8424 17.1763 21.1291 17.3885 22.9288Z" fill="#9BB4C6"/>
<path fill-rule="evenodd" clip-rule="evenodd" d="M17.3726 48.7843C10.268 48.7843 4.48553 54.6648 4.48553 61.8951C4.48553 69.1208 10.268 75.0036 17.3726 75.0036H73.4035C82.324 75.0036 89.5783 67.6204 89.5783 58.5454C89.5783 49.4705 82.324 42.0872 73.4035 42.0872C71.7441 42.0872 70.0935 42.3482 68.5033 42.8588L67.467 43.194L67.1007 42.1502C63.6768 32.3554 54.5241 25.7753 44.3283 25.7753C31.8633 25.7753 21.5179 35.2776 20.2627 47.8777L20.1466 49.0453L19.0031 48.9013C18.3687 48.8203 17.8506 48.7843 17.3726 48.7843Z" fill="#EDF3F9"/>
</svg>
