<svg width="84" height="48" viewBox="0 0 84 48" fill="none" xmlns="http://www.w3.org/2000/svg">
<path fill-rule="evenodd" clip-rule="evenodd" d="M12.6578 22.1484C5.67957 22.1484 0 27.809 0 34.7688C0 41.7243 5.67957 47.387 12.6578 47.387H67.692C76.4538 47.387 83.579 40.2799 83.579 31.5444C83.579 22.8089 76.4538 15.7018 67.692 15.7018C66.062 15.7018 64.4409 15.953 62.8789 16.4446L61.8611 16.7672L61.5013 15.7625C58.1383 6.334 49.1484 0 39.134 0C26.8908 0 16.7294 9.14694 15.4965 21.2757L15.3825 22.3996L14.2593 22.261C13.6362 22.1831 13.1273 22.1484 12.6578 22.1484Z" fill="#EDF3F9"/>
</svg>
