<svg width="100" height="56" viewBox="0 0 100 56" fill="none" xmlns="http://www.w3.org/2000/svg">
<path fill-rule="evenodd" clip-rule="evenodd" d="M24.9042 26.1632C18.8927 26.1632 14 31.0608 14 37.0825C14 43.1005 18.8927 48 24.9042 48H72.314C79.8619 48 86 41.8508 86 34.2927C86 26.7346 79.8619 20.5855 72.314 20.5855C70.9098 20.5855 69.5133 20.8028 68.1677 21.2281L67.2908 21.5073L66.9809 20.6379C64.0838 12.4803 56.3394 7 47.7124 7C37.1653 7 28.4117 14.9141 27.3496 25.4081L27.2514 26.3805L26.2838 26.2606C25.7471 26.1932 25.3086 26.1632 24.9042 26.1632" fill="#EDF3F9"/>
</svg>
