<svg width="84" height="69" viewBox="0 0 84 69" fill="none" xmlns="http://www.w3.org/2000/svg">
<g clip-path="url(#clip0_0_426)">
<path fill-rule="evenodd" clip-rule="evenodd" d="M13.6477 33.3272C6.675 33.3272 1 39.0334 1 46.0494C1 53.061 6.675 58.7694 13.6477 58.7694H68.6375C77.3923 58.7694 84.5118 51.605 84.5118 42.799C84.5118 33.993 77.3923 26.8286 68.6375 26.8286C67.0089 26.8286 65.389 27.0818 63.8284 27.5773L62.8113 27.9026L62.4518 26.8897C59.0915 17.3851 50.1088 11 40.1025 11C27.8691 11 17.7159 20.2208 16.4841 32.4475L16.3701 33.5804L15.2478 33.4407C14.6253 33.3621 14.1167 33.3272 13.6477 33.3272Z" fill="#EDF3F9"/>
</g>
<defs>
<clipPath id="clip0_0_426">
<rect width="84" height="69" fill="white"/>
</clipPath>
</defs>
</svg>
