<svg width="84" height="69" viewBox="0 0 84 69" fill="none" xmlns="http://www.w3.org/2000/svg">
<path fill-rule="evenodd" clip-rule="evenodd" d="M12.6477 33.3272C5.675 33.3272 0 39.0334 0 46.0494C0 53.061 5.675 58.7694 12.6477 58.7694H67.6375C76.3923 58.7694 83.5118 51.605 83.5118 42.799C83.5118 33.993 76.3923 26.8286 67.6375 26.8286C66.0089 26.8286 64.389 27.0818 62.8284 27.5773L61.8113 27.9026L61.4518 26.8897C58.0915 17.3851 49.1088 11 39.1025 11C26.8691 11 16.7159 20.2208 15.4841 32.4475L15.3701 33.5804L14.2478 33.4407C13.6253 33.3621 13.1167 33.3272 12.6477 33.3272Z" fill="#D6E3F2"/>
</svg>
