<svg width="84" height="48" viewBox="0 0 84 48" fill="none" xmlns="http://www.w3.org/2000/svg">
<path fill-rule="evenodd" clip-rule="evenodd" d="M12.6576 22.1716C5.67933 22.1716 -0.000244141 27.8321 -0.000244141 34.792C-0.000244141 41.7475 5.67933 47.4102 12.6576 47.4102H67.6917C76.4535 47.4102 83.5788 40.3031 83.5788 31.5676C83.5788 22.8321 76.4535 15.725 67.6917 15.725C66.0618 15.725 64.4406 15.9762 62.8787 16.4678L61.8608 16.7904L61.501 15.7856C58.138 6.35719 49.1481 0.0231934 39.1337 0.0231934C26.8905 0.0231934 16.7292 9.17013 15.4963 21.2989L15.3822 22.4228L14.259 22.2842C13.636 22.2063 13.127 22.1716 12.6576 22.1716Z" fill="#EDF3F9"/>
</svg>
