<svg width="84" height="69" viewBox="0 0 84 69" fill="none" xmlns="http://www.w3.org/2000/svg">
<g clip-path="url(#clip0_0_426)">
<path fill-rule="evenodd" clip-rule="evenodd" d="M23.1531 54.1921C23.1531 54.1921 20.3649 62.007 21.097 65.0042C21.702 67.484 24.1811 69.0187 26.6273 68.4271C29.0823 67.8333 30.5707 65.336 29.9657 62.8584C29.2336 59.859 23.1531 54.1921 23.1531 54.1921Z" fill="#C0EAF9"/>
<path fill-rule="evenodd" clip-rule="evenodd" d="M40.7439 53.9581C40.7439 53.9581 37.9557 61.773 38.6878 64.7724C39.2928 67.25 41.7719 68.7846 44.2182 68.1931C46.6732 67.5993 48.1615 65.102 47.5565 62.6244C46.8244 59.625 40.7439 53.9581 40.7439 53.9581Z" fill="#C0EAF9"/>
<path fill-rule="evenodd" clip-rule="evenodd" d="M56.9666 64.5272C57.5716 67.0071 60.0507 68.5417 62.497 67.9501C64.952 67.3563 66.4403 64.859 65.8331 62.3814C65.101 59.382 59.0227 53.7151 59.0227 53.7151C59.0227 53.7151 56.2345 61.53 56.9666 64.5272Z" fill="#C0EAF9"/>
<path fill-rule="evenodd" clip-rule="evenodd" d="M12.6474 23.0252C5.67476 23.0252 -0.000244141 28.7315 -0.000244141 35.7475C-0.000244141 42.7591 5.67476 48.4675 12.6474 48.4675H67.6373C76.392 48.4675 83.5115 41.3031 83.5115 32.4971C83.5115 23.691 76.392 16.5266 67.6373 16.5266C66.0087 16.5266 64.3888 16.7798 62.8281 17.2754L61.811 17.6006L61.4516 16.5877C58.0913 7.08318 49.1086 0.698059 39.1023 0.698059C26.8689 0.698059 16.7157 9.91883 15.4838 22.1455L15.3698 23.2785L14.2475 23.1388C13.625 23.0602 13.1165 23.0252 12.6474 23.0252Z" fill="#EDF3F9"/>
</g>
<defs>
<clipPath id="clip0_0_426">
<rect width="84" height="69" fill="white"/>
</clipPath>
</defs>
</svg>
