<svg width="100" height="81" viewBox="0 0 100 81" fill="none" xmlns="http://www.w3.org/2000/svg">
<g clip-path="url(#clip0_0_261)">
<path fill-rule="evenodd" clip-rule="evenodd" d="M22.8703 51.8791C22.8703 51.8791 20.1431 59.1638 20.8249 61.9455C21.3868 64.2461 23.7521 65.6558 26.1027 65.089C28.4575 64.5201 29.9011 62.1902 29.3371 59.8895C28.6574 57.1057 22.8703 51.8791 22.8703 51.8791Z" fill="#C0EAF9"/>
<path fill-rule="evenodd" clip-rule="evenodd" d="M39.7304 51.5405C39.7304 51.5405 37.0032 58.8252 37.685 61.6068C38.2469 63.9075 40.6122 65.3172 42.9628 64.7504C45.3176 64.1815 46.7612 61.8516 46.1972 59.5509C45.5175 56.7671 39.7304 51.5405 39.7304 51.5405Z" fill="#C0EAF9"/>
<path fill-rule="evenodd" clip-rule="evenodd" d="M57.2497 51.1889C57.2497 51.1889 54.5225 58.4736 55.2043 61.2553C55.7661 63.5559 58.1315 64.9656 60.4821 64.3988C62.8369 63.8299 64.2805 61.5 63.7165 59.1993C63.0368 56.4156 57.2497 51.1889 57.2497 51.1889Z" fill="#C0EAF9"/>
<path fill-rule="evenodd" clip-rule="evenodd" d="M73.7534 50.3715C73.7534 50.3715 71.0261 57.6562 71.7079 60.4379C72.2698 62.7386 74.6351 64.1482 76.9857 63.5814C79.3405 63.0125 80.7841 60.6826 80.2201 58.382C79.5404 55.5982 73.7534 50.3715 73.7534 50.3715Z" fill="#C0EAF9"/>
<path fill-rule="evenodd" clip-rule="evenodd" d="M32.761 67.2583C32.761 67.2583 30.0337 74.543 30.7155 77.3247C31.2774 79.6253 33.6427 81.035 35.9933 80.4682C38.3481 79.8993 39.7917 77.5694 39.2277 75.2687C38.548 72.485 32.761 67.2583 32.761 67.2583Z" fill="#C0EAF9"/>
<path fill-rule="evenodd" clip-rule="evenodd" d="M50.2802 66.9065C50.2802 66.9065 47.553 74.1912 48.2348 76.9729C48.7967 79.2735 51.162 80.6832 53.5126 80.1164C55.8674 79.5475 57.311 77.2176 56.747 74.9169C56.0673 72.1331 50.2802 66.9065 50.2802 66.9065Z" fill="#C0EAF9"/>
<path fill-rule="evenodd" clip-rule="evenodd" d="M66.7839 66.0891C66.7839 66.0891 64.0566 73.3738 64.7385 76.1555C65.3003 78.4561 67.6656 79.8658 70.0162 79.299C72.371 78.7301 73.8146 76.4002 73.2507 74.0996C72.5709 71.3158 66.7839 66.0891 66.7839 66.0891Z" fill="#C0EAF9"/>
<path fill-rule="evenodd" clip-rule="evenodd" d="M88.9602 24.0864C95.0208 24.0864 99.9513 29.0516 99.9513 35.1588C99.9513 41.2618 95.0208 46.227 88.9602 46.227H41.1719C33.5667 46.227 27.3777 39.9922 27.3777 32.329C27.3777 24.6657 33.5667 18.431 41.1719 18.431C42.5881 18.431 43.996 18.6506 45.3512 19.0835L46.2371 19.3659L46.5486 18.4854C49.4694 10.2135 57.2746 4.65637 65.9699 4.65637C76.6012 4.65637 85.4248 12.6794 86.496 23.3209L86.5949 24.306L87.5713 24.1847C88.11 24.1178 88.5519 24.0864 88.9602 24.0864Z" fill="#C8D0D6"/>
<path fill-rule="evenodd" clip-rule="evenodd" d="M12.142 22.0413C5.44799 22.0413 -0.000244141 27.5085 -0.000244141 34.2306C-0.000244141 40.9485 5.44799 46.4177 12.142 46.4177H64.9345C73.3394 46.4177 80.1744 39.5534 80.1744 31.1163C80.1744 22.6792 73.3394 15.8149 64.9345 15.8149C63.371 15.8149 61.8158 16.0575 60.3175 16.5323L59.3411 16.8439L58.996 15.8735C55.77 6.76711 47.1462 0.649475 37.5397 0.649475C25.7952 0.649475 16.0477 9.48396 14.8651 21.1984L14.7556 22.2839L13.6782 22.1501C13.0806 22.0748 12.5923 22.0413 12.142 22.0413Z" fill="#EDF3F9"/>
</g>
<defs>
<clipPath id="clip0_0_261">
<rect width="100" height="81" fill="white"/>
</clipPath>
</defs>
</svg>
