<svg width="100" height="83" viewBox="0 0 100 83" fill="none" xmlns="http://www.w3.org/2000/svg">
<g clip-path="url(#clip0_0_26)">
<path fill-rule="evenodd" clip-rule="evenodd" d="M62.9447 51.2432C62.9447 51.2432 60.2 58.7157 60.8936 61.5759C61.4681 63.9374 63.8638 65.3889 66.2383 64.8113C68.6191 64.2316 70.0745 61.8402 69.5021 59.4787C68.8085 56.6205 62.9447 51.2432 62.9447 51.2432Z" fill="#C0EAF9"/>
<path fill-rule="evenodd" clip-rule="evenodd" d="M79.9981 50.9265C79.9981 50.9265 77.2535 58.399 77.9471 61.2571C78.5215 63.6208 80.9173 65.0722 83.2917 64.4946C85.6726 63.9149 87.1279 61.5236 86.5556 59.162C85.862 56.3039 79.9981 50.9265 79.9981 50.9265Z" fill="#C0EAF9"/>
<path fill-rule="evenodd" clip-rule="evenodd" d="M14.3849 52.2008C14.3849 52.2008 11.6402 59.6733 12.3338 62.5314C12.9083 64.8951 15.304 66.3465 17.6785 65.7689C20.0593 65.1892 21.5146 62.7978 20.9423 60.4363C20.2487 57.5782 14.3849 52.2008 14.3849 52.2008Z" fill="#C0EAF9"/>
<path fill-rule="evenodd" clip-rule="evenodd" d="M26.2074 68.4525C26.2074 68.4525 23.45 75.876 24.1393 78.7107C24.7074 81.0551 27.0989 82.4917 29.4755 81.9141C31.8563 81.3344 33.3159 78.96 32.7457 76.6156C32.0585 73.7787 26.2074 68.4525 26.2074 68.4525Z" fill="#C0EAF9"/>
<path fill-rule="evenodd" clip-rule="evenodd" d="M56.6876 67.4757C56.6876 67.4757 53.9302 74.8992 54.6195 77.7339C55.1876 80.0783 57.5791 81.5149 59.9557 80.9373C62.3366 80.3575 63.7961 77.9832 63.2259 75.6388C62.5387 72.8019 56.6876 67.4757 56.6876 67.4757Z" fill="#C0EAF9"/>
<path fill-rule="evenodd" clip-rule="evenodd" d="M74.7088 66.6429C74.7088 66.6429 71.9513 74.0664 72.6407 76.9011C73.2088 79.2456 75.6002 80.6821 77.9768 80.1045C80.3577 79.5248 81.8173 77.1505 81.2471 74.806C80.5598 71.9692 74.7088 66.6429 74.7088 66.6429Z" fill="#C0EAF9"/>
<path fill-rule="evenodd" clip-rule="evenodd" d="M28.3457 56.8844H42.3734L41.633 54.8234C40.2947 51.0978 39.0798 47.7217 38.6968 46.6646C38.0585 44.8998 38.033 43.5272 38.6266 42.7003C39.1117 42.0225 39.8819 41.8818 40.0606 41.8818H44.3074C46.9691 41.8818 48.5947 44.5396 49.1755 46.8138C49.3564 47.5235 49.567 48.3398 49.7968 49.2328C50.7223 52.822 51.9904 57.739 52.8713 61.5733C53.4947 64.2865 52.8798 65.4225 52.5862 65.7849C52.3138 66.1216 51.9351 66.2836 51.4266 66.2836H36.8287L41.9393 80.879C42.1755 81.5504 42.1393 81.9212 42.0968 82.0385C41.9032 82.0662 41.2074 81.9063 40.5798 81.0048C37.6074 76.7314 30.1159 65.6804 26.8457 60.6483C26.0542 59.4292 25.8032 58.4253 26.1393 57.82C26.4457 57.2701 27.3521 56.8844 28.3457 56.8844Z" fill="#F9C900"/>
<path fill-rule="evenodd" clip-rule="evenodd" d="M88.073 24.89C94.2007 24.89 99.1858 29.9498 99.1858 36.1734C99.1858 42.3926 94.2007 47.4524 88.073 47.4524H39.756C32.0667 47.4524 25.8092 41.0989 25.8092 33.2896C25.8092 25.4804 32.0667 19.1269 39.756 19.1269C41.1879 19.1269 42.6113 19.3507 43.9815 19.7919L44.8773 20.0796L45.1922 19.1823C48.1454 10.7528 56.0369 5.08984 64.8284 5.08984C75.5773 5.08984 84.4986 13.2657 85.5815 24.11L85.6815 25.1138L86.6688 24.9902C87.2135 24.922 87.6603 24.89 88.073 24.89Z" fill="#EDF3F9"/>
<path fill-rule="evenodd" clip-rule="evenodd" d="M-0.000244141 35.0989C-0.000244141 41.9448 5.50827 47.5182 12.2764 47.5182H65.6529C74.1508 47.5182 81.0615 40.5232 81.0615 31.9253C81.0615 23.3275 74.1508 16.3324 65.6529 16.3324C64.0721 16.3324 62.4998 16.5797 60.9849 17.0635L59.9976 17.381L59.6487 16.3921C56.387 7.11223 47.6678 0.878052 37.9551 0.878052C26.0806 0.878052 16.2253 9.88085 15.0295 21.8185L14.9189 22.9247L13.8295 22.7883C13.2253 22.7115 12.7317 22.6774 12.2764 22.6774C5.50827 22.6774 -0.000244141 28.2488 -0.000244141 35.0989Z" fill="#C8D0D6"/>
</g>
<defs>
<clipPath id="clip0_0_26">
<rect width="100" height="83" fill="white"/>
</clipPath>
</defs>
</svg>
