<svg width="63" height="70" viewBox="0 0 63 70" fill="none" xmlns="http://www.w3.org/2000/svg">
<path fill-rule="evenodd" clip-rule="evenodd" d="M62.8517 38.2616C62.7039 37.6864 62.3401 37.2021 61.8239 36.8997C61.3101 36.595 60.7053 36.5109 60.1232 36.6587L45.5648 40.5603L35.9357 35.0011L45.5648 29.4397L60.1573 33.3482C61.3578 33.6233 62.5402 32.923 62.8471 31.7566C63.0063 31.1745 62.9267 30.5674 62.6243 30.0468C62.3219 29.5261 61.8399 29.16 61.2714 29.0145L51.0512 26.2725L60.9804 20.545C62.0331 19.9061 62.3833 18.5715 61.7739 17.5051C61.1623 16.4342 59.7867 16.0613 58.7135 16.6752L48.8162 22.3981L51.556 12.171C51.706 11.5981 51.6174 10.9774 51.3172 10.4658C51.0126 9.94965 50.5283 9.58586 49.953 9.43807C48.7798 9.13795 47.5588 9.84734 47.2314 11.0228L43.3321 25.5653L33.703 31.1268V20.0039L44.3575 9.35167C45.2101 8.48313 45.2078 7.06889 44.3529 6.1958C43.93 5.77062 43.3662 5.53643 42.7659 5.53643C42.1679 5.53643 41.6063 5.77062 41.1834 6.19352L33.703 13.674V2.23276C33.703 1.0027 32.6957 0 31.4589 0C30.2265 0 29.2261 1.0027 29.2261 2.23276V13.674L21.7479 6.1958C21.325 5.77062 20.7612 5.53643 20.1609 5.53643C19.5629 5.53643 18.9991 5.77289 18.5693 6.20262C17.719 7.07117 17.7235 8.4854 18.5784 9.3585L29.2261 20.0039V31.1268L19.5948 25.5653L15.6931 11.0092C15.368 9.84279 14.1493 9.13795 12.9761 9.43807C11.7824 9.74275 11.0639 10.9728 11.3708 12.1801L14.1129 22.4004L4.19962 16.6729C3.12644 16.0613 1.78497 16.4251 1.14379 17.5051C0.532167 18.5783 0.895957 19.9198 1.97368 20.5587L11.8779 26.2725L1.67811 29.01C1.10059 29.1555 0.61402 29.517 0.311619 30.0309C0.00694543 30.5447 -0.0794546 31.1745 0.0751561 31.7634C0.345725 32.7343 1.23246 33.4096 2.23061 33.4096C2.41933 33.4096 2.6035 33.3868 2.81722 33.3368L17.3529 29.4397L26.9911 35.0011L17.362 40.5603L2.80813 36.6609C2.23516 36.5109 1.60989 36.5973 1.09832 36.9019C0.591283 37.2021 0.220672 37.6909 0.0842508 38.2366C-0.077181 38.8141 0.000124395 39.4189 0.300251 39.9441C0.598104 40.4603 1.09149 40.84 1.65764 40.9878L11.8779 43.7275L1.96004 49.4504C0.895957 50.0802 0.534441 51.449 1.15516 52.4949C1.5576 53.1975 2.28518 53.6181 3.09916 53.6181C3.49023 53.6181 3.87449 53.518 4.21554 53.3248L14.122 47.5996L11.3845 57.813C11.2253 58.3883 11.3049 58.9954 11.6073 59.5183C11.9029 60.0299 12.3781 60.3982 12.9374 60.5506C13.1307 60.6097 13.3285 60.637 13.5445 60.637C14.5358 60.637 15.4248 59.9571 15.709 58.9772L19.597 44.4324L29.2261 38.8732V49.9961L18.5875 60.6415C17.7144 61.5146 17.7144 62.9334 18.5875 63.8065C19.0104 64.2294 19.572 64.4636 20.1745 64.4636C20.7748 64.4613 21.3341 64.2294 21.7548 63.8065L29.2261 56.3283V67.7672C29.2261 68.9996 30.2311 70 31.468 70C32.7003 70 33.703 68.9996 33.703 67.7672V56.326L41.1789 63.8019C41.6018 64.2294 42.1656 64.4636 42.7614 64.4636C43.3662 64.4636 43.93 64.2294 44.3484 63.8065C45.2215 62.9334 45.2215 61.5146 44.3484 60.6415L33.703 49.9961V38.8755L43.3321 44.4438L47.2269 58.9954C47.4997 59.9617 48.3865 60.637 49.3846 60.637C49.5983 60.637 49.7961 60.6097 49.9826 60.5528C50.551 60.4005 51.0262 60.0344 51.3218 59.5251C51.6219 59.009 51.7038 58.3883 51.5469 57.8199L48.8071 47.6087L58.7249 53.3316C59.066 53.5249 59.4479 53.6249 59.8299 53.6249C60.6371 53.6249 61.3601 53.2065 61.7694 52.504C62.3833 51.449 62.0195 50.0757 60.9554 49.4413L51.0512 43.7275L61.2623 40.99C61.8421 40.8377 62.3264 40.4671 62.6288 39.9441C62.9244 39.428 63.0063 38.8141 62.8517 38.2616Z" fill="#C0EAF9"/>
</svg>
