<svg width="84" height="81" viewBox="0 0 84 81" fill="none" xmlns="http://www.w3.org/2000/svg">
<g clip-path="url(#clip0_0_373)">
<path fill-rule="evenodd" clip-rule="evenodd" d="M77.089 60.0569H6.57711C5.39367 60.0569 4.43555 59.0854 4.43555 57.8855C4.43555 56.6855 5.39367 55.7141 6.57711 55.7141H77.089C78.2724 55.7141 79.2305 56.6855 79.2305 57.8855C79.2305 59.0854 78.2724 60.0569 77.089 60.0569" fill="#C8D0D6"/>
<path fill-rule="evenodd" clip-rule="evenodd" d="M77.089 70.3704H6.57711C5.39367 70.3704 4.43555 69.3989 4.43555 68.1989C4.43555 66.999 5.39367 66.0275 6.57711 66.0275H77.089C78.2724 66.0275 79.2305 66.999 79.2305 68.1989C79.2305 69.3989 78.2724 70.3704 77.089 70.3704" fill="#C8D0D6"/>
<path fill-rule="evenodd" clip-rule="evenodd" d="M53.2094 80.1367H6.57625C5.39282 80.1367 4.43469 79.1652 4.43469 77.9652C4.43469 76.7653 5.39282 75.7938 6.57625 75.7938H53.2094C54.3928 75.7938 55.3509 76.7653 55.3509 77.9652C55.3509 79.1652 54.3928 80.1367 53.2094 80.1367" fill="#C8D0D6"/>
<path fill-rule="evenodd" clip-rule="evenodd" d="M12.6216 23.5802C5.66319 23.5802 -0.000244141 29.3781 -0.000244141 36.5067C-0.000244141 43.6309 5.66319 49.431 12.6216 49.431H67.4994C76.2363 49.431 83.3413 42.1515 83.3413 33.2041C83.3413 24.2567 76.2363 16.9773 67.4994 16.9773C65.8741 16.9773 64.2576 17.2346 62.7001 17.738L61.6851 18.0685L61.3263 17.0394C57.9729 7.38223 49.0085 0.894592 39.0226 0.894592C26.8141 0.894592 16.6816 10.2634 15.4523 22.6864L15.3385 23.8375L14.2185 23.6956C13.5973 23.6157 13.0898 23.5802 12.6216 23.5802" fill="#EDF3F9"/>
</g>
<defs>
<clipPath id="clip0_0_373">
<rect width="84" height="81" fill="white"/>
</clipPath>
</defs>
</svg>
