<svg width="32" height="32" viewBox="0 0 32 32" fill="none" xmlns="http://www.w3.org/2000/svg">
<path d="M16 8C15.0111 8 14.0444 8.29325 13.2221 8.84265C12.3999 9.39206 11.759 10.173 11.3806 11.0866C11.0022 12.0002 10.9031 13.0055 11.0961 13.9755C11.289 14.9454 11.7652 15.8363 12.4645 16.5355C13.1637 17.2348 14.0546 17.711 15.0245 17.9039C15.9945 18.0969 16.9998 17.9978 17.9134 17.6194C18.827 17.241 19.6079 16.6001 20.1573 15.7779C20.7068 14.9556 21 13.9889 21 13C20.9985 11.6744 20.4712 10.4035 19.5339 9.46615C18.5965 8.52879 17.3256 8.00152 16 8V8ZM16 16C15.4067 16 14.8266 15.8241 14.3333 15.4944C13.8399 15.1648 13.4554 14.6962 13.2284 14.1481C13.0013 13.5999 12.9419 12.9967 13.0576 12.4147C13.1734 11.8328 13.4591 11.2982 13.8787 10.8787C14.2982 10.4591 14.8328 10.1734 15.4147 10.0576C15.9967 9.94189 16.5999 10.0013 17.1481 10.2284C17.6962 10.4554 18.1648 10.8399 18.4944 11.3333C18.8241 11.8266 19 12.4067 19 13C18.9991 13.7954 18.6828 14.5579 18.1203 15.1203C17.5579 15.6827 16.7954 15.9991 16 16V16ZM16 2C13.0836 2.00331 10.2877 3.1633 8.22548 5.22548C6.1633 7.28766 5.00331 10.0836 5 13C5 16.9245 6.81375 21.0849 10.2454 25.0312C11.7896 26.8144 13.5273 28.4202 15.4265 29.8193C15.5946 29.9369 15.7948 30 16 30C16.2052 30 16.4054 29.9369 16.5735 29.8193C18.4727 28.4202 20.2104 26.8144 21.7546 25.0312C25.1861 21.0849 27 16.9246 27 13C26.9967 10.0836 25.8367 7.28766 23.7745 5.22548C21.7123 3.1633 18.9164 2.00331 16 2V2ZM16 27.7475C13.9334 26.1265 7 20.1539 7 13C7 10.6131 7.94821 8.32387 9.63604 6.63604C11.3239 4.94821 13.6131 4 16 4C18.3869 4 20.6761 4.94821 22.364 6.63604C24.0518 8.32387 25 10.6131 25 13C25 20.154 18.0663 26.1269 16 27.7475V27.7475Z" fill="white"/>
</svg>
